<?xml version="1.0" standalone="no"?>
<!DOCTYPE svg PUBLIC "-//W3C//DTD SVG 20010904//EN"
 "http://www.w3.org/TR/2001/REC-SVG-20010904/DTD/svg10.dtd">
<svg version="1.0" xmlns="http://www.w3.org/2000/svg"
 width="1206.000000pt" height="1280.000000pt" viewBox="0 0 1206.000000 1280.000000"
 preserveAspectRatio="xMidYMid meet">
<g transform="translate(0.000000,1280.000000) scale(0.100000,-0.100000)"
fill="#000000" stroke="none">
<path d="M3475 12789 c-1018 -63 -1780 -345 -2507 -928 -554 -443 -833 -935
-923 -1624 -55 -425 -34 -1129 45 -1527 123 -617 332 -1118 923 -2216 504
-937 679 -1333 852 -1924 185 -630 277 -1246 278 -1850 1 -597 -64 -962 -230
-1294 -141 -280 -324 -485 -557 -624 -260 -155 -457 -187 -691 -112 -55 18
-187 77 -295 132 -224 114 -240 116 -33 3 394 -214 581 -243 861 -135 172 66
361 196 497 342 143 154 295 414 373 639 97 278 150 748 139 1224 -15 617
-114 1219 -303 1843 -163 541 -335 925 -824 1847 -210 395 -429 833 -510 1020
-180 414 -305 798 -369 1135 -78 416 -94 1052 -36 1498 80 608 341 1082 814
1475 629 524 1303 818 2116 921 294 37 377 41 950 40 557 0 788 -8 1150 -40
1003 -87 1785 -337 2470 -789 249 -164 430 -316 604 -509 509 -564 842 -1266
936 -1971 47 -352 -10 -1165 -121 -1715 -59 -293 -102 -438 -299 -1015 -188
-550 -274 -747 -407 -937 -32 -46 -44 -67 -27 -48 128 146 273 447 432 900 36
102 96 271 135 375 215 588 321 1156 364 1951 18 333 -5 587 -82 899 -99 402
-290 830 -533 1195 -265 397 -552 690 -922 939 -743 502 -1569 763 -2685 850
-388 31 -1302 48 -1585 30z"/>
<path d="M3200 11020 c-113 -4 -288 -10 -390 -14 -326 -12 -478 -35 -690 -102
-125 -39 -323 -115 -317 -121 2 -2 48 13 103 33 129 47 331 98 474 121 101 16
182 18 680 18 587 -1 761 -8 1025 -46 342 -49 595 -129 855 -273 867 -481
1439 -1175 1865 -2266 114 -291 204 -567 340 -1036 125 -432 223 -690 384
-1012 234 -468 501 -843 832 -1169 251 -247 460 -399 744 -538 485 -239 799
-250 1030 -34 164 154 248 386 247 684 0 232 -51 422 -152 576 -190 290 -484
338 -704 116 -146 -147 -165 -337 -49 -501 66 -93 208 -155 321 -141 75 9 80
12 102 56 37 72 17 193 -42 246 -16 14 -15 10 6 -21 50 -74 57 -139 24 -206
l-23 -45 -90 0 c-106 0 -163 23 -230 89 -89 89 -119 232 -74 351 28 76 118
169 204 211 52 25 71 29 145 29 110 -1 160 -24 256 -119 148 -147 225 -392
211 -671 -24 -466 -278 -742 -632 -685 -111 18 -307 88 -466 167 -448 222
-848 591 -1198 1108 -289 426 -509 900 -663 1425 -214 734 -348 1118 -528
1510 -375 821 -905 1437 -1590 1850 -418 252 -740 356 -1230 399 -168 15 -544
20 -780 11z"/>
<path d="M1870 10721 c-106 -6 -96 -7 121 -13 263 -9 436 -21 614 -43 760 -97
1281 -408 2054 -1229 288 -305 405 -452 548 -691 314 -523 508 -1140 683
-2175 116 -687 197 -1002 375 -1455 460 -1171 1239 -2083 2115 -2476 224 -100
447 -169 684 -209 143 -24 436 -40 566 -30 l95 7 -120 1 c-637 10 -1237 233
-1770 659 -129 102 -382 347 -500 483 -569 655 -1013 1576 -1209 2506 -14 67
-50 272 -81 455 -163 976 -312 1503 -571 2019 -200 398 -364 617 -760 1016
-243 245 -398 387 -579 532 -659 525 -1244 691 -2265 643z"/>
<path d="M2278 10190 c12 -97 5 -371 -12 -500 -53 -387 -81 -506 -221 -930
-57 -173 -117 -367 -134 -430 -83 -325 -111 -691 -76 -993 56 -478 217 -850
562 -1293 402 -518 635 -736 945 -884 260 -124 496 -140 957 -63 l154 25 18
-23 c10 -13 57 -87 106 -164 166 -265 252 -457 292 -650 21 -100 60 -502 82
-835 13 -205 6 -510 -16 -625 -16 -89 -18 -115 -4 -70 51 165 62 617 30 1150
-22 364 -35 452 -91 615 -41 122 -137 318 -240 489 -44 74 -79 135 -77 136 1
1 52 14 112 30 357 90 736 251 999 425 102 67 260 194 306 245 14 16 -11 -2
-55 -39 -432 -366 -1173 -629 -1933 -687 -171 -13 -291 -4 -422 32 -113 31
-303 127 -421 214 -201 149 -474 448 -766 841 -419 563 -563 1187 -442 1914
27 161 71 330 159 610 123 386 153 524 196 890 22 187 22 491 1 570 l-15 55 6
-55z"/>
<path d="M3531 8747 c0 -5 -10 -65 -20 -135 -11 -70 -22 -165 -26 -212 -17
-221 -67 -425 -167 -679 -80 -206 -98 -276 -99 -386 -2 -195 94 -351 304 -492
132 -90 136 -92 117 -68 -8 11 -74 84 -146 163 -145 158 -187 226 -203 329
-17 110 4 201 117 493 108 279 162 575 148 805 -6 95 -21 207 -25 182z"/>
<path d="M3860 6356 c-36 -12 -100 -39 -143 -59 -120 -56 -135 -56 -191 -8
-60 52 -90 67 -146 76 -57 8 -149 -12 -266 -60 -49 -19 -105 -35 -125 -35 -21
0 -41 -5 -44 -10 -10 -17 41 -95 91 -139 132 -116 326 -175 659 -201 245 -19
396 15 565 130 65 44 160 137 200 195 l29 42 -88 6 c-63 4 -121 17 -212 46
-151 49 -226 53 -329 17z"/>
<path d="M11030 5064 c-299 -64 -412 -243 -397 -629 6 -148 22 -226 63 -307
86 -170 275 -242 505 -194 113 24 173 64 203 137 19 45 31 196 18 229 -7 19
-10 3 -14 -70 -6 -110 -29 -175 -76 -208 -52 -37 -144 -55 -260 -50 -92 4
-109 8 -169 39 -110 56 -162 145 -184 317 -8 67 -8 119 0 204 18 182 51 269
129 340 149 135 539 128 780 -14 83 -48 183 -151 221 -227 56 -109 74 -197 75
-356 0 -112 -4 -157 -21 -226 -95 -376 -395 -701 -750 -813 -126 -39 -238 -49
-409 -37 -311 24 -579 80 -919 195 -261 87 -326 119 -684 334 -201 120 -449
252 -476 252 -5 0 33 -24 85 -53 100 -55 122 -70 445 -288 232 -157 327 -211
502 -283 554 -229 1138 -328 1451 -247 533 139 941 685 909 1216 -7 110 -37
241 -73 324 -117 265 -421 433 -778 430 -61 0 -140 -7 -176 -15z"/>
<path d="M8465 3842 c438 -228 759 -496 1037 -870 234 -313 474 -812 555
-1152 34 -145 43 -375 19 -516 -82 -481 -434 -867 -949 -1039 -251 -84 -470
-109 -947 -109 -282 0 -381 3 -483 17 -468 64 -786 193 -997 406 -149 150
-240 396 -240 645 1 239 89 410 254 492 95 47 162 63 281 70 246 15 478 -75
591 -229 105 -143 167 -335 162 -503 -3 -89 -7 -107 -33 -159 -36 -70 -94
-111 -183 -132 l-57 -13 53 6 c80 8 127 31 175 84 98 109 111 309 36 535 -57
172 -128 275 -241 355 -137 96 -294 142 -488 142 -427 0 -665 -243 -664 -677
1 -260 86 -510 231 -678 223 -260 617 -427 1163 -494 197 -24 695 -24 925 1
496 52 840 197 1125 472 265 256 406 562 427 922 16 291 -60 571 -268 992
-300 607 -694 1032 -1234 1329 -100 55 -374 181 -393 181 -4 0 61 -35 143 -78z"/>
</g>
</svg>
